<svg xmlns="http://www.w3.org/2000/svg" viewBox="0 0 640 360" fill="none">
  <defs>
    <linearGradient id="bg" x1="40" y1="28" x2="602" y2="330" gradientUnits="userSpaceOnUse">
      <stop stop-color="#EFECE7"/>
      <stop offset="1" stop-color="#DDD8D1"/>
    </linearGradient>
  </defs>

  <rect width="640" height="360" rx="28" fill="url(#bg)"/>
  <rect x="24" y="24" width="592" height="312" rx="20" fill="#F4F2EE" stroke="#D3CEC7"/>

  <rect x="48" y="48" width="544" height="50" rx="14" fill="#ECE9E4" stroke="#D7D2CB"/>
  <text x="70" y="80" font-family="Inter, Arial, sans-serif" font-size="23" font-weight="700" fill="#171717">Tasks by status</text>
  <rect x="490" y="62" width="86" height="22" rx="9" fill="#E8EEF9" stroke="#CCD8F0"/>
  <text x="505" y="77" font-family="Inter, Arial, sans-serif" font-size="11" fill="#3F62B3">Nominal</text>

  <rect x="48" y="112" width="544" height="166" rx="16" fill="#F6F4F0" stroke="#D7D2CB"/>
  <text x="86" y="142" font-family="Inter, Arial, sans-serif" font-size="23" font-weight="600" fill="#171717">24</text>
  <text x="178" y="142" font-family="Inter, Arial, sans-serif" font-size="23" font-weight="600" fill="#171717">8</text>
  <text x="270" y="142" font-family="Inter, Arial, sans-serif" font-size="23" font-weight="600" fill="#171717">6</text>
  <text x="362" y="142" font-family="Inter, Arial, sans-serif" font-size="23" font-weight="600" fill="#171717">39</text>
  <text x="454" y="142" font-family="Inter, Arial, sans-serif" font-size="23" font-weight="600" fill="#171717">1</text>

  <rect x="84" y="202" width="52" height="52" rx="8" fill="#D5D2CD"/>
  <rect x="176" y="182" width="52" height="72" rx="8" fill="#DFDCD7"/>
  <rect x="268" y="160" width="52" height="94" rx="8" fill="#EEA34B"/>
  <rect x="360" y="172" width="52" height="82" rx="8" fill="#D9DDE4"/>
  <rect x="452" y="216" width="52" height="38" rx="8" fill="#5E7BE8"/>

  <text x="70" y="268" font-family="Inter, Arial, sans-serif" font-size="10" fill="#6D6862">Backlog</text>
  <text x="160" y="268" font-family="Inter, Arial, sans-serif" font-size="10" fill="#6D6862">Scheduled</text>
  <text x="262" y="268" font-family="Inter, Arial, sans-serif" font-size="10" fill="#6D6862">Running</text>
  <text x="349" y="268" font-family="Inter, Arial, sans-serif" font-size="10" fill="#6D6862">Completed</text>
  <text x="456" y="268" font-family="Inter, Arial, sans-serif" font-size="10" fill="#6D6862">Failed</text>

  <rect x="48" y="290" width="544" height="26" rx="10" fill="#ECE9E4" stroke="#D7D2CB"/>
  <text x="68" y="307" font-family="Inter, Arial, sans-serif" font-size="11" fill="#78736D">Completion today</text>
  <text x="196" y="308" font-family="Inter, Arial, sans-serif" font-size="20" font-weight="700" fill="#171717">82%</text>
  <rect x="502" y="294" width="74" height="18" rx="8" fill="#F8F8F9" stroke="#D7D2CB"/>
  <text x="516" y="307" font-family="Inter, Arial, sans-serif" font-size="10" fill="#3D3A35">View report</text>
</svg>
