<svg xmlns="http://www.w3.org/2000/svg" viewBox="0 0 640 360" fill="none">
  <defs>
    <linearGradient id="bg" x1="36" y1="28" x2="608" y2="332" gradientUnits="userSpaceOnUse">
      <stop stop-color="#EFECE6"/>
      <stop offset="1" stop-color="#DDD9D1"/>
    </linearGradient>
  </defs>

  <rect width="640" height="360" rx="24" fill="url(#bg)"/>
  <rect x="24" y="24" width="592" height="312" rx="20" fill="#F4F2EE" stroke="#D4CFC8"/>

  <rect x="44" y="44" width="552" height="56" rx="14" fill="#ECE9E4" stroke="#D7D2CB"/>
  <text x="66" y="78" font-family="Inter, Arial, sans-serif" font-size="24" font-weight="700" fill="#171717">Tasks by status</text>
  <rect x="490" y="60" width="88" height="24" rx="10" fill="#E8EEF9" stroke="#CAD6EE"/>
  <text x="504" y="76" font-family="Inter, Arial, sans-serif" font-size="11" fill="#3F62B4">Nominal</text>

  <rect x="44" y="116" width="552" height="156" rx="16" fill="#F5F3F0" stroke="#D7D2CB"/>
  <text x="92" y="148" font-family="Inter, Arial, sans-serif" font-size="24" font-weight="600" fill="#171717">24</text>
  <text x="184" y="148" font-family="Inter, Arial, sans-serif" font-size="24" font-weight="600" fill="#171717">8</text>
  <text x="276" y="148" font-family="Inter, Arial, sans-serif" font-size="24" font-weight="600" fill="#171717">6</text>
  <text x="368" y="148" font-family="Inter, Arial, sans-serif" font-size="24" font-weight="600" fill="#171717">39</text>
  <text x="460" y="148" font-family="Inter, Arial, sans-serif" font-size="24" font-weight="600" fill="#171717">1</text>

  <rect x="92" y="208" width="52" height="44" rx="8" fill="#D5D2CD"/>
  <rect x="184" y="186" width="52" height="66" rx="8" fill="#DFDCD7"/>
  <rect x="276" y="166" width="52" height="86" rx="8" fill="#EEA34B"/>
  <rect x="368" y="176" width="52" height="76" rx="8" fill="#D9DDE4"/>
  <rect x="460" y="220" width="52" height="32" rx="8" fill="#5E7BE8"/>

  <text x="82" y="266" font-family="Inter, Arial, sans-serif" font-size="10" fill="#6D6862">Backlog</text>
  <text x="168" y="266" font-family="Inter, Arial, sans-serif" font-size="10" fill="#6D6862">Scheduled</text>
  <text x="270" y="266" font-family="Inter, Arial, sans-serif" font-size="10" fill="#6D6862">Running</text>
  <text x="357" y="266" font-family="Inter, Arial, sans-serif" font-size="10" fill="#6D6862">Completed</text>
  <text x="465" y="266" font-family="Inter, Arial, sans-serif" font-size="10" fill="#6D6862">Failed</text>

  <rect x="44" y="284" width="552" height="36" rx="12" fill="#ECE9E4" stroke="#D7D2CB"/>
  <text x="66" y="307" font-family="Inter, Arial, sans-serif" font-size="12" fill="#76726B">Completion today</text>
  <text x="202" y="309" font-family="Inter, Arial, sans-serif" font-size="24" font-weight="700" fill="#171717">82%</text>
  <rect x="480" y="290" width="98" height="24" rx="10" fill="#F8F8F9" stroke="#D7D2CB"/>
  <text x="500" y="306" font-family="Inter, Arial, sans-serif" font-size="11" fill="#3D3A35">View report</text>
</svg>
