<svg xmlns="http://www.w3.org/2000/svg" viewBox="0 0 640 360" fill="none">
  <defs>
    <linearGradient id="bg" x1="44" y1="30" x2="604" y2="334" gradientUnits="userSpaceOnUse">
      <stop stop-color="#F0EDE8"/>
      <stop offset="1" stop-color="#DEDAD3"/>
    </linearGradient>
    <linearGradient id="module" x1="430" y1="220" x2="520" y2="310" gradientUnits="userSpaceOnUse">
      <stop stop-color="#FF9A3C"/>
      <stop offset="1" stop-color="#4F7DF3"/>
    </linearGradient>
  </defs>

  <rect width="640" height="360" rx="24" fill="url(#bg)"/>
  <rect x="24" y="24" width="592" height="312" rx="20" fill="#F4F2EE" stroke="#D4CFC8"/>

  <rect x="44" y="44" width="552" height="56" rx="14" fill="#ECE9E4" stroke="#D7D2CB"/>
  <text x="66" y="78" font-family="Inter, Arial, sans-serif" font-size="24" font-weight="700" fill="#171717">Last task</text>
  <rect x="508" y="60" width="70" height="24" rx="10" fill="#F8F8F9" stroke="#D7D2CB"/>
  <text x="523" y="76" font-family="Inter, Arial, sans-serif" font-size="11" fill="#64615B">14 logs</text>

  <rect x="44" y="116" width="356" height="172" rx="16" fill="#ECE9E4" stroke="#D6D1CA"/>
  <text x="66" y="143" font-family="Inter, Arial, sans-serif" font-size="11" fill="#7B7770">Task</text>
  <text x="66" y="161" font-family="Inter, Arial, sans-serif" font-size="15" font-weight="600" fill="#171717">Resumo diario dos agentes</text>

  <text x="66" y="189" font-family="Inter, Arial, sans-serif" font-size="11" fill="#7B7770">Agent</text>
  <text x="66" y="207" font-family="Inter, Arial, sans-serif" font-size="15" font-weight="600" fill="#171717">Nova</text>

  <text x="66" y="235" font-family="Inter, Arial, sans-serif" font-size="11" fill="#7B7770">Result</text>
  <text x="66" y="253" font-family="Inter, Arial, sans-serif" font-size="15" font-weight="600" fill="#4064B6">Success</text>

  <rect x="258" y="226" width="124" height="40" rx="12" fill="#F8F8F9" stroke="#D6D1CA"/>
  <text x="280" y="250" font-family="Inter, Arial, sans-serif" font-size="12" fill="#3D3A35">Open logs</text>

  <rect x="418" y="116" width="178" height="172" rx="16" fill="#ECE9E4" stroke="#D6D1CA"/>
  <rect x="450" y="158" width="114" height="114" rx="22" fill="#D3CEC7"/>
  <circle cx="507" cy="215" r="34" fill="url(#module)"/>

  <rect x="44" y="302" width="552" height="18" rx="8" fill="#E8E5E0"/>
  <rect x="60" y="306" width="138" height="10" rx="5" fill="#D0CBC4"/>
  <rect x="210" y="306" width="196" height="10" rx="5" fill="#D0CBC4"/>
  <rect x="420" y="306" width="158" height="10" rx="5" fill="#4F7DF3" fill-opacity="0.35"/>
</svg>
