<svg xmlns="http://www.w3.org/2000/svg" viewBox="0 0 640 360" fill="none">
  <defs>
    <linearGradient id="bg" x1="50" y1="44" x2="590" y2="320" gradientUnits="userSpaceOnUse">
      <stop stop-color="#EFECE7"/>
      <stop offset="1" stop-color="#DDD9D3"/>
    </linearGradient>
    <linearGradient id="bar" x1="350" y1="120" x2="438" y2="272" gradientUnits="userSpaceOnUse">
      <stop stop-color="#FF9A3C"/>
      <stop offset="1" stop-color="#4F7DF3"/>
    </linearGradient>
  </defs>
  <rect width="640" height="360" rx="24" fill="url(#bg)"/>
  <rect x="30" y="30" width="580" height="300" rx="20" fill="#ECE9E4" stroke="#D7D2CB"/>
  <rect x="60" y="62" width="210" height="236" rx="16" fill="#E5E1DB"/>
  <rect x="286" y="62" width="294" height="236" rx="16" fill="#F3F1EE"/>
  <rect x="88" y="94" width="154" height="16" rx="8" fill="#D6D1CA"/>
  <rect x="88" y="120" width="120" height="16" rx="8" fill="#D6D1CA"/>
  <rect x="88" y="160" width="154" height="12" rx="6" fill="#D6D1CA"/>
  <rect x="88" y="182" width="126" height="12" rx="6" fill="#D6D1CA"/>
  <rect x="322" y="210" width="44" height="56" rx="10" fill="#D5D2CD"/>
  <rect x="378" y="168" width="44" height="98" rx="10" fill="#DCD8D2"/>
  <rect x="434" y="124" width="44" height="142" rx="10" fill="url(#bar)"/>
  <rect x="490" y="184" width="44" height="82" rx="10" fill="#DCD8D2"/>
  <rect x="546" y="198" width="22" height="68" rx="10" fill="#D5D2CD"/>
  <circle cx="456" cy="96" r="14" fill="#4F7DF3" fill-opacity="0.22"/>
</svg>
