<svg xmlns="http://www.w3.org/2000/svg" viewBox="0 0 1200 720" fill="none">
  <defs>
    <linearGradient id="bg" x1="120" y1="80" x2="1090" y2="660" gradientUnits="userSpaceOnUse">
      <stop stop-color="#ECE9E4"/>
      <stop offset="1" stop-color="#DCD8D1"/>
    </linearGradient>
    <linearGradient id="panel" x1="230" y1="200" x2="900" y2="620" gradientUnits="userSpaceOnUse">
      <stop stop-color="#F6F4F1"/>
      <stop offset="1" stop-color="#E9E5DE"/>
    </linearGradient>
    <linearGradient id="orangeBlue" x1="640" y1="258" x2="724" y2="390" gradientUnits="userSpaceOnUse">
      <stop stop-color="#FF9A3C"/>
      <stop offset="1" stop-color="#4F7DF3"/>
    </linearGradient>
  </defs>

  <rect width="1200" height="720" rx="34" fill="url(#bg)"/>
  <rect x="44" y="44" width="1112" height="632" rx="24" fill="#F3F1EE" stroke="#D2CDC6"/>

  <rect x="74" y="74" width="66" height="572" rx="18" fill="#ECE9E4" stroke="#D6D1CA"/>
  <rect x="88" y="92" width="38" height="38" rx="12" fill="#F8F8F9" stroke="#D7D2CB"/>
  <rect x="90" y="168" width="34" height="34" rx="10" fill="#F8F8F9" stroke="#D7D2CB"/>
  <rect x="90" y="216" width="34" height="34" rx="10" fill="#ECE9E4" stroke="#D7D2CB"/>
  <rect x="90" y="264" width="34" height="34" rx="10" fill="#ECE9E4" stroke="#D7D2CB"/>
  <rect x="90" y="312" width="34" height="34" rx="10" fill="#ECE9E4" stroke="#D7D2CB"/>
  <rect x="90" y="360" width="34" height="34" rx="10" fill="#ECE9E4" stroke="#D7D2CB"/>

  <rect x="160" y="74" width="966" height="72" rx="18" fill="#ECE9E4" stroke="#D6D1CA"/>
  <text x="190" y="118" font-family="Inter, Arial, sans-serif" font-size="34" font-weight="700" fill="#171717">General overview</text>
  <rect x="550" y="92" width="220" height="36" rx="18" fill="#F8F8F9" stroke="#D7D2CB"/>
  <text x="598" y="116" font-family="Inter, Arial, sans-serif" font-size="15" fill="#65625D">Search in Pulse...</text>
  <circle cx="804" cy="110" r="16" fill="#F8F8F9" stroke="#D7D2CB"/>
  <circle cx="850" cy="110" r="16" fill="#F8F8F9" stroke="#D7D2CB"/>
  <rect x="882" y="92" width="210" height="36" rx="18" fill="#F8F8F9" stroke="#D7D2CB"/>
  <circle cx="906" cy="110" r="10" fill="#D4A26D"/>
  <text x="924" y="105" font-family="Inter, Arial, sans-serif" font-size="10" fill="#8A867E">Material Yield Analyst</text>
  <text x="924" y="118" font-family="Inter, Arial, sans-serif" font-size="15" font-weight="600" fill="#171717">Nikita Topson</text>

  <rect x="160" y="162" width="466" height="484" rx="20" fill="url(#panel)" stroke="#D3CEC7"/>
  <text x="184" y="196" font-family="Inter, Arial, sans-serif" font-size="17" font-weight="700" fill="#171717">Backlog</text>
  <text x="184" y="214" font-family="Inter, Arial, sans-serif" font-size="12" fill="#78746D">Tasks to schedule</text>

  <rect x="184" y="236" width="418" height="262" rx="18" fill="#ECE9E4" stroke="#D6D1CA"/>
  <rect x="220" y="276" width="148" height="34" rx="12" fill="#F8F8F9" stroke="#D7D2CB"/>
  <text x="232" y="298" font-family="Inter, Arial, sans-serif" font-size="12" fill="#6E6B65">Next due: Today 16:00</text>
  <rect x="210" y="416" width="160" height="34" rx="12" fill="#F8F8F9" stroke="#D7D2CB"/>
  <text x="222" y="438" font-family="Inter, Arial, sans-serif" font-size="12" fill="#6E6B65">Backlog size: 24 tasks</text>
  <rect x="430" y="286" width="154" height="34" rx="12" fill="#F8F8F9" stroke="#D7D2CB"/>
  <text x="442" y="308" font-family="Inter, Arial, sans-serif" font-size="12" fill="#6E6B65">Ready to run: 8</text>

  <rect x="334" y="290" width="126" height="160" rx="28" fill="#C0C7CE" stroke="#A8A39B"/>
  <rect x="354" y="314" width="86" height="104" rx="14" fill="#F19532" fill-opacity="0.82"/>

  <rect x="184" y="512" width="418" height="118" rx="16" fill="#ECE9E4" stroke="#D6D1CA"/>
  <text x="206" y="540" font-family="Inter, Arial, sans-serif" font-size="18" font-weight="700" fill="#171717">Annual planning</text>
  <text x="206" y="558" font-family="Inter, Arial, sans-serif" font-size="12" fill="#78746D">Year timeline</text>
  <rect x="446" y="528" width="50" height="24" rx="10" fill="#F8F8F9" stroke="#D7D2CB"/>
  <text x="463" y="544" font-family="Inter, Arial, sans-serif" font-size="11" fill="#66625D">2026</text>
  <rect x="204" y="572" width="388" height="38" rx="12" fill="#F4F2EF" stroke="#D8D3CC"/>
  <rect x="214" y="592" width="20" height="10" rx="3" fill="#CCC8C1"/>
  <rect x="240" y="586" width="20" height="16" rx="3" fill="#CCC8C1"/>
  <rect x="266" y="581" width="20" height="21" rx="3" fill="#4F7DF3" fill-opacity="0.75"/>
  <rect x="292" y="577" width="20" height="25" rx="3" fill="#FF9A3C"/>
  <rect x="318" y="584" width="20" height="18" rx="3" fill="#CCC8C1"/>
  <rect x="344" y="580" width="20" height="22" rx="3" fill="#4F7DF3" fill-opacity="0.75"/>
  <rect x="370" y="575" width="20" height="27" rx="3" fill="#CCC8C1"/>
  <rect x="396" y="582" width="20" height="20" rx="3" fill="#CCC8C1"/>
  <rect x="422" y="588" width="20" height="14" rx="3" fill="#CCC8C1"/>

  <rect x="642" y="162" width="484" height="296" rx="20" fill="url(#panel)" stroke="#D3CEC7"/>
  <text x="666" y="202" font-family="Inter, Arial, sans-serif" font-size="48" font-weight="700" fill="#171717">Tasks by status</text>
  <text x="666" y="223" font-family="Inter, Arial, sans-serif" font-size="13" fill="#78746D">Overview of current workload</text>

  <rect x="980" y="180" width="126" height="34" rx="10" fill="#E8EEF9" stroke="#CBD7F0"/>
  <circle cx="996" cy="197" r="5" fill="#4F7DF3"/>
  <text x="1008" y="201" font-family="Inter, Arial, sans-serif" font-size="12" fill="#3E5FAF">System nominal</text>

  <rect x="666" y="244" width="436" height="164" rx="16" fill="#F4F2EF" stroke="#D7D2CB"/>
  <text x="704" y="266" font-family="Inter, Arial, sans-serif" font-size="28" font-weight="600" fill="#171717">24</text>
  <text x="784" y="266" font-family="Inter, Arial, sans-serif" font-size="28" font-weight="600" fill="#171717">8</text>
  <text x="860" y="266" font-family="Inter, Arial, sans-serif" font-size="28" font-weight="600" fill="#171717">6</text>
  <text x="936" y="266" font-family="Inter, Arial, sans-serif" font-size="28" font-weight="600" fill="#171717">39</text>
  <text x="1014" y="266" font-family="Inter, Arial, sans-serif" font-size="28" font-weight="600" fill="#171717">1</text>

  <rect x="704" y="332" width="54" height="58" rx="8" fill="#D5D2CD"/>
  <rect x="784" y="310" width="54" height="80" rx="8" fill="#DFDCD7"/>
  <rect x="864" y="280" width="54" height="110" rx="8" fill="#EEA34B"/>
  <rect x="944" y="296" width="54" height="94" rx="8" fill="#D9DDE4"/>
  <rect x="1024" y="344" width="54" height="46" rx="8" fill="#5E7BE8"/>
  <text x="712" y="406" font-family="Inter, Arial, sans-serif" font-size="11" fill="#6F6A64">Backlog</text>
  <text x="790" y="406" font-family="Inter, Arial, sans-serif" font-size="11" fill="#6F6A64">Scheduled</text>
  <text x="875" y="406" font-family="Inter, Arial, sans-serif" font-size="11" fill="#6F6A64">Running</text>
  <text x="948" y="406" font-family="Inter, Arial, sans-serif" font-size="11" fill="#6F6A64">Completed</text>
  <text x="1033" y="406" font-family="Inter, Arial, sans-serif" font-size="11" fill="#6F6A64">Failed</text>

  <text x="668" y="438" font-family="Inter, Arial, sans-serif" font-size="12" fill="#78746D">Completion today</text>
  <text x="668" y="458" font-family="Inter, Arial, sans-serif" font-size="42" font-weight="700" fill="#171717">82%</text>
  <rect x="1000" y="426" width="102" height="28" rx="10" fill="#F8F8F9" stroke="#D7D2CB"/>
  <text x="1022" y="444" font-family="Inter, Arial, sans-serif" font-size="12" fill="#3C3A36">View report</text>

  <rect x="642" y="474" width="286" height="172" rx="20" fill="url(#panel)" stroke="#D3CEC7"/>
  <text x="664" y="508" font-family="Inter, Arial, sans-serif" font-size="32" font-weight="700" fill="#171717">Agents activity</text>
  <rect x="812" y="488" width="96" height="24" rx="10" fill="#F8F8F9" stroke="#D7D2CB"/>
  <text x="828" y="504" font-family="Inter, Arial, sans-serif" font-size="11" fill="#66625D">Live feed</text>

  <rect x="662" y="522" width="246" height="34" rx="10" fill="#ECE9E4"/>
  <circle cx="680" cy="539" r="11" fill="#49505E"/>
  <text x="698" y="537" font-family="Inter, Arial, sans-serif" font-size="12" font-weight="600" fill="#171717">Atlas</text>
  <text x="698" y="550" font-family="Inter, Arial, sans-serif" font-size="10" fill="#6C6964">Triagem de materiais</text>
  <rect x="850" y="529" width="52" height="16" rx="8" fill="#FFE7CE"/>
  <text x="862" y="540" font-family="Inter, Arial, sans-serif" font-size="10" fill="#AF6A1E">Running</text>

  <rect x="662" y="564" width="246" height="34" rx="10" fill="#ECE9E4"/>
  <circle cx="680" cy="581" r="11" fill="#49505E"/>
  <text x="698" y="579" font-family="Inter, Arial, sans-serif" font-size="12" font-weight="600" fill="#171717">Nova</text>
  <text x="698" y="592" font-family="Inter, Arial, sans-serif" font-size="10" fill="#6C6964">Resumo diario dos agentes</text>
  <rect x="842" y="571" width="60" height="16" rx="8" fill="#E7ECFA"/>
  <text x="852" y="582" font-family="Inter, Arial, sans-serif" font-size="10" fill="#3F62B4">Completed</text>

  <rect x="944" y="474" width="182" height="172" rx="20" fill="url(#panel)" stroke="#D3CEC7"/>
  <text x="964" y="508" font-family="Inter, Arial, sans-serif" font-size="32" font-weight="700" fill="#171717">Last task</text>
  <rect x="1042" y="488" width="74" height="24" rx="10" fill="#F8F8F9" stroke="#D7D2CB"/>
  <text x="1054" y="504" font-family="Inter, Arial, sans-serif" font-size="11" fill="#66625D">14 logs</text>

  <text x="964" y="534" font-family="Inter, Arial, sans-serif" font-size="10" fill="#7C7872">Task</text>
  <text x="964" y="549" font-family="Inter, Arial, sans-serif" font-size="12" font-weight="600" fill="#171717">Resumo diario dos agentes</text>
  <text x="964" y="570" font-family="Inter, Arial, sans-serif" font-size="10" fill="#7C7872">Agent</text>
  <text x="964" y="585" font-family="Inter, Arial, sans-serif" font-size="12" font-weight="600" fill="#171717">Nova</text>
  <text x="964" y="605" font-family="Inter, Arial, sans-serif" font-size="10" fill="#7C7872">Result</text>
  <text x="964" y="620" font-family="Inter, Arial, sans-serif" font-size="12" font-weight="600" fill="#3D61B2">Success</text>

  <rect x="1040" y="558" width="68" height="68" rx="18" fill="#D1CDC7"/>
  <circle cx="1074" cy="592" r="19" fill="url(#orangeBlue)"/>
</svg>
