<svg xmlns="http://www.w3.org/2000/svg" viewBox="0 0 1200 720" fill="none">
  <defs>
    <linearGradient id="bg" x1="120" y1="80" x2="1030" y2="680" gradientUnits="userSpaceOnUse">
      <stop stop-color="#ECE9E4"/>
      <stop offset="1" stop-color="#DDD9D3"/>
    </linearGradient>
    <linearGradient id="accent" x1="252" y1="182" x2="744" y2="530" gradientUnits="userSpaceOnUse">
      <stop stop-color="#FF9A3C"/>
      <stop offset="1" stop-color="#4F7DF3"/>
    </linearGradient>
  </defs>
  <rect width="1200" height="720" rx="36" fill="url(#bg)"/>
  <rect x="46" y="46" width="1108" height="628" rx="28" fill="#F5F3F0" stroke="#D7D2CB"/>
  <rect x="78" y="78" width="160" height="564" rx="22" fill="#ECE9E4" stroke="#D7D2CB"/>
  <rect x="272" y="78" width="848" height="96" rx="22" fill="#ECE9E4" stroke="#D7D2CB"/>
  <rect x="302" y="109" width="330" height="34" rx="17" fill="#F8F8F9" stroke="#D6D1CA"/>
  <circle cx="1036" cy="126" r="20" fill="#F8F8F9" stroke="#D6D1CA"/>
  <circle cx="1090" cy="126" r="20" fill="#F8F8F9" stroke="#D6D1CA"/>
  <rect x="272" y="196" width="398" height="446" rx="24" fill="#ECE9E4" stroke="#D7D2CB"/>
  <rect x="696" y="196" width="424" height="274" rx="24" fill="#ECE9E4" stroke="#D7D2CB"/>
  <rect x="696" y="486" width="206" height="156" rx="24" fill="#ECE9E4" stroke="#D7D2CB"/>
  <rect x="914" y="486" width="206" height="156" rx="24" fill="#ECE9E4" stroke="#D7D2CB"/>
  <rect x="326" y="246" width="290" height="12" rx="6" fill="#D8D3CC"/>
  <rect x="326" y="270" width="220" height="12" rx="6" fill="#D8D3CC"/>
  <rect x="326" y="352" width="290" height="230" rx="22" fill="#E5E1DB" stroke="#D4CFC8"/>
  <rect x="736" y="258" width="58" height="150" rx="12" fill="#D8D3CC"/>
  <rect x="810" y="236" width="58" height="172" rx="12" fill="#E1DCD6"/>
  <rect x="884" y="216" width="58" height="192" rx="12" fill="url(#accent)"/>
  <rect x="958" y="262" width="58" height="146" rx="12" fill="#E1DCD6"/>
  <rect x="1032" y="250" width="58" height="158" rx="12" fill="#D8D3CC"/>
  <circle cx="815" cy="554" r="34" fill="#D2CEC8"/>
  <circle cx="815" cy="554" r="18" fill="#FF9A3C"/>
  <rect x="953" y="520" width="128" height="24" rx="12" fill="#D8D3CC"/>
  <rect x="953" y="554" width="88" height="24" rx="12" fill="#D8D3CC"/>
  <rect x="107" y="138" width="102" height="18" rx="9" fill="#D9D4CD"/>
  <rect x="107" y="188" width="102" height="18" rx="9" fill="#D9D4CD"/>
  <rect x="107" y="238" width="102" height="18" rx="9" fill="#D9D4CD"/>
  <rect x="107" y="288" width="102" height="18" rx="9" fill="#D9D4CD"/>
  <rect x="107" y="338" width="102" height="18" rx="9" fill="#D9D4CD"/>
</svg>
