<svg xmlns="http://www.w3.org/2000/svg" viewBox="0 0 640 360" fill="none">
  <defs>
    <linearGradient id="bg" x1="32" y1="32" x2="606" y2="332" gradientUnits="userSpaceOnUse">
      <stop stop-color="#F0EDE8"/>
      <stop offset="1" stop-color="#E0DDD6"/>
    </linearGradient>
  </defs>

  <rect width="640" height="360" rx="24" fill="url(#bg)"/>
  <rect x="24" y="24" width="592" height="312" rx="20" fill="#F4F2EE" stroke="#D4CFC8"/>

  <rect x="44" y="44" width="552" height="56" rx="14" fill="#ECE9E4" stroke="#D7D2CB"/>
  <text x="66" y="78" font-family="Inter, Arial, sans-serif" font-size="24" font-weight="700" fill="#171717">Agents activity</text>
  <rect x="490" y="60" width="88" height="24" rx="10" fill="#F8F8F9" stroke="#D7D2CB"/>
  <text x="508" y="76" font-family="Inter, Arial, sans-serif" font-size="11" fill="#64615B">Live feed</text>

  <rect x="44" y="116" width="552" height="52" rx="14" fill="#ECE9E4"/>
  <circle cx="74" cy="142" r="15" fill="#4C5261"/>
  <text x="98" y="138" font-family="Inter, Arial, sans-serif" font-size="14" font-weight="600" fill="#171717">Atlas</text>
  <text x="98" y="153" font-family="Inter, Arial, sans-serif" font-size="11" fill="#6B6761">Material triage — shift A</text>
  <rect x="500" y="130" width="74" height="20" rx="10" fill="#FFE7CE"/>
  <text x="518" y="144" font-family="Inter, Arial, sans-serif" font-size="11" fill="#A7651F">Running</text>

  <rect x="44" y="176" width="552" height="52" rx="14" fill="#ECE9E4"/>
  <circle cx="74" cy="202" r="15" fill="#4C5261"/>
  <text x="98" y="198" font-family="Inter, Arial, sans-serif" font-size="14" font-weight="600" fill="#171717">Vega</text>
  <text x="98" y="213" font-family="Inter, Arial, sans-serif" font-size="11" fill="#6B6761">Update OCR file index</text>
  <rect x="500" y="190" width="74" height="20" rx="10" fill="#FFE7CE"/>
  <text x="518" y="204" font-family="Inter, Arial, sans-serif" font-size="11" fill="#A7651F">Running</text>

  <rect x="44" y="236" width="552" height="52" rx="14" fill="#ECE9E4"/>
  <circle cx="74" cy="262" r="15" fill="#4C5261"/>
  <text x="98" y="258" font-family="Inter, Arial, sans-serif" font-size="14" font-weight="600" fill="#171717">Nova</text>
  <text x="98" y="273" font-family="Inter, Arial, sans-serif" font-size="11" fill="#6B6761">Daily agent summary</text>
  <rect x="488" y="250" width="86" height="20" rx="10" fill="#E7ECFA"/>
  <text x="503" y="264" font-family="Inter, Arial, sans-serif" font-size="11" fill="#3E62B3">Completed</text>

  <path d="M62 307H578" stroke="#D2CDC6" stroke-width="2" stroke-linecap="round"/>
  <circle cx="110" cy="307" r="5" fill="#FF9A3C"/>
  <circle cx="238" cy="307" r="5" fill="#FF9A3C"/>
  <circle cx="366" cy="307" r="5" fill="#4F7DF3"/>
  <circle cx="494" cy="307" r="5" fill="#4F7DF3"/>
</svg>
