<svg xmlns="http://www.w3.org/2000/svg" viewBox="0 0 640 360" fill="none">
  <defs>
    <linearGradient id="bg" x1="56" y1="44" x2="584" y2="318" gradientUnits="userSpaceOnUse">
      <stop stop-color="#F0EDE8"/>
      <stop offset="1" stop-color="#E0DDD7"/>
    </linearGradient>
  </defs>
  <rect width="640" height="360" rx="24" fill="url(#bg)"/>
  <rect x="30" y="30" width="580" height="64" rx="16" fill="#ECE9E4" stroke="#D7D2CB"/>
  <rect x="48" y="50" width="190" height="24" rx="12" fill="#D8D3CC"/>
  <circle cx="560" cy="62" r="14" fill="#FF9A3C"/>
  <rect x="30" y="110" width="280" height="220" rx="18" fill="#ECE9E4" stroke="#D7D2CB"/>
  <rect x="330" y="110" width="280" height="102" rx="18" fill="#ECE9E4" stroke="#D7D2CB"/>
  <rect x="330" y="228" width="280" height="102" rx="18" fill="#ECE9E4" stroke="#D7D2CB"/>
  <path d="M110 216h120M170 156v120" stroke="#4F7DF3" stroke-width="8" stroke-linecap="round"/>
  <circle cx="170" cy="216" r="42" fill="#4F7DF3" fill-opacity="0.16"/>
  <rect x="362" y="140" width="140" height="14" rx="7" fill="#D9D4CD"/>
  <rect x="362" y="164" width="220" height="14" rx="7" fill="#D9D4CD"/>
  <rect x="362" y="258" width="180" height="14" rx="7" fill="#D9D4CD"/>
  <rect x="362" y="282" width="152" height="14" rx="7" fill="#D9D4CD"/>
</svg>
